<svg id="Layer_1" data-name="Layer 1" xmlns="http://www.w3.org/2000/svg" xmlns:xlink="http://www.w3.org/1999/xlink" viewBox="0 0 213.98 35.22"><defs><style>.cls-1{fill:#42210b;}.cls-2{fill:#f2f2f2;}.cls-3{fill:url(#îâûé_îáðàçåö_ãðàäèåíòà_25);}.cls-4{fill:url(#îâûé_îáðàçåö_ãðàäèåíòà_25-2);}.cls-5{clip-path:url(#clip-path);}.cls-6{fill:#ff4340;}.cls-7{fill:#c1272d;opacity:0.3;}.cls-8{clip-path:url(#clip-path-2);}.cls-9{fill:#e6e6e6;}.cls-10{fill:url(#îâûé_îáðàçåö_ãðàäèåíòà_25-3);}.cls-11{fill:url(#îâûé_îáðàçåö_ãðàäèåíòà_25-4);}.cls-12{clip-path:url(#clip-path-3);}.cls-13{clip-path:url(#clip-path-4);}.cls-14{fill:url(#îâûé_îáðàçåö_ãðàäèåíòà_25-5);}</style><linearGradient id="îâûé_îáðàçåö_ãðàäèåíòà_25" x1="60.38" y1="11.63" x2="83.29" y2="48.3" gradientUnits="userSpaceOnUse"><stop offset="0" stop-color="#ffd03f"/><stop offset="0.2" stop-color="#fdca3a"/><stop offset="0.46" stop-color="#f6b82b"/><stop offset="0.77" stop-color="#eb9c12"/><stop offset="0.9" stop-color="#e58e06"/><stop offset="1" stop-color="#df8800"/></linearGradient><linearGradient id="îâûé_îáðàçåö_ãðàäèåíòà_25-2" x1="16.08" y1="11.63" x2="38.99" y2="48.3" xlink:href="#îâûé_îáðàçåö_ãðàäèåíòà_25"/><clipPath id="clip-path" transform="translate(-9.02 -11.23)"><path class="cls-1" d="M27.29,32.34c2.36,0,4.29,1.32,4.45,3,0,.12-.13.21-.29.2h0a39.89,39.89,0,0,0-8.32,0h0c-.16,0-.3-.08-.29-.2C23,33.66,24.93,32.34,27.29,32.34Z"/></clipPath><clipPath id="clip-path-2" transform="translate(-9.02 -11.23)"><path class="cls-2" d="M25.23,33.09a9.65,9.65,0,0,1,4.11,0c.16,0,.16,0,.22-.15s0-.26.09-.38a10.74,10.74,0,0,0-4.72,0c.05.12,0,.28.09.39S25.07,33.12,25.23,33.09Z"/></clipPath><linearGradient id="îâûé_îáðàçåö_ãðàäèåíòà_25-3" x1="148.96" y1="11.63" x2="171.88" y2="48.3" xlink:href="#îâûé_îáðàçåö_ãðàäèåíòà_25"/><linearGradient id="îâûé_îáðàçåö_ãðàäèåíòà_25-4" x1="193.26" y1="11.63" x2="216.17" y2="48.3" xlink:href="#îâûé_îáðàçåö_ãðàäèåíòà_25"/><clipPath id="clip-path-3" transform="translate(-9.02 -11.23)"><path class="cls-1" d="M204.47,35.54c-2.36,0-4.29-1.33-4.45-3,0-.12.13-.21.29-.2h0a41.31,41.31,0,0,0,8.32,0h0c.16,0,.3.08.29.2C208.76,34.21,206.83,35.54,204.47,35.54Z"/></clipPath><clipPath id="clip-path-4" transform="translate(-9.02 -11.23)"><path class="cls-2" d="M201,32.89a29.15,29.15,0,0,0,6.86,0c.23,0,.25-.13.26-.32s-.06-.43-.06-.62a39.13,39.13,0,0,1-7.26,0c0,.19-.07.44-.06.63S200.82,32.87,201,32.89Z"/></clipPath><linearGradient id="îâûé_îáðàçåö_ãðàäèåíòà_25-5" x1="104.67" y1="11.63" x2="127.58" y2="48.3" xlink:href="#îâûé_îáðàçåö_ãðàäèåíòà_25"/></defs><title>star</title><path class="cls-3" d="M73.67,12.45l4,8.09a2.17,2.17,0,0,0,1.64,1.2L88.24,23a2.19,2.19,0,0,1,1.21,3.73L83,33.06A2.2,2.2,0,0,0,82.36,35l1.53,8.9a2.19,2.19,0,0,1-3.17,2.3l-8-4.2a2.2,2.2,0,0,0-2,0l-8,4.2a2.18,2.18,0,0,1-3.17-2.3L61.06,35a2.17,2.17,0,0,0-.62-1.93L54,26.76A2.19,2.19,0,0,1,55.18,23l8.93-1.29a2.19,2.19,0,0,0,1.65-1.2l4-8.09A2.18,2.18,0,0,1,73.67,12.45Z" transform="translate(-9.02 -11.23)"/><circle class="cls-1" cx="66.79" cy="15.89" r="1.49"/><circle class="cls-1" cx="58.61" cy="15.89" r="1.49"/><path class="cls-1" d="M74.2,25.18h0a.2.2,0,0,1,0-.28,2.63,2.63,0,0,1,3.14-.06.19.19,0,0,1,0,.28h0a.2.2,0,0,1-.27,0,2.25,2.25,0,0,0-2.67.06A.2.2,0,0,1,74.2,25.18Z" transform="translate(-9.02 -11.23)"/><path class="cls-1" d="M71.59,32.34a6.89,6.89,0,0,0-4.2,1.42.65.65,0,0,0-.08,1h0a.64.64,0,0,0,.87.07,5.66,5.66,0,0,1,6.81,0,.64.64,0,0,0,.87-.07h0a.65.65,0,0,0-.08-1A6.88,6.88,0,0,0,71.59,32.34Z" transform="translate(-9.02 -11.23)"/><path class="cls-1" d="M66,25.18h0a.19.19,0,0,1,0-.28,2.65,2.65,0,0,1,3.15-.06.19.19,0,0,1,0,.28h0a.2.2,0,0,1-.27,0,2.23,2.23,0,0,0-1.3-.41,2.19,2.19,0,0,0-1.37.47A.2.2,0,0,1,66,25.18Z" transform="translate(-9.02 -11.23)"/><path class="cls-4" d="M29.38,12.45l4,8.09A2.19,2.19,0,0,0,35,21.74L44,23a2.19,2.19,0,0,1,1.21,3.73l-6.46,6.3A2.17,2.17,0,0,0,38.07,35l1.52,8.9a2.18,2.18,0,0,1-3.17,2.3l-8-4.2a2.2,2.2,0,0,0-2,0l-8,4.2a2.19,2.19,0,0,1-3.17-2.3L16.77,35a2.17,2.17,0,0,0-.63-1.93l-6.46-6.3A2.19,2.19,0,0,1,10.89,23l8.93-1.29a2.17,2.17,0,0,0,1.64-1.2l4-8.09A2.18,2.18,0,0,1,29.38,12.45Z" transform="translate(-9.02 -11.23)"/><circle class="cls-1" cx="22.49" cy="15.89" r="1.49"/><circle class="cls-1" cx="14.31" cy="15.89" r="1.49"/><path class="cls-1" d="M29.91,25.18h0a.19.19,0,0,1,0-.28,2.65,2.65,0,0,1,3.15-.06.19.19,0,0,1,0,.28h0a.19.19,0,0,1-.26,0,2.26,2.26,0,0,0-2.68.06A.19.19,0,0,1,29.91,25.18Z" transform="translate(-9.02 -11.23)"/><path class="cls-1" d="M27.29,32.34c2.36,0,4.29,1.32,4.45,3,0,.12-.13.21-.29.2h0a39.89,39.89,0,0,0-8.32,0h0c-.16,0-.3-.08-.29-.2C23,33.66,24.93,32.34,27.29,32.34Z" transform="translate(-9.02 -11.23)"/><g class="cls-5"><path class="cls-6" d="M24.37,35.5c0,.55,1.31,1,2.92,1s2.92-.44,2.92-1-1.25-1-2.86-1c0,0-.12.14-.14.14s-.16-.14-.2-.14C25.48,34.55,24.37,35,24.37,35.5Z" transform="translate(-9.02 -11.23)"/><path class="cls-7" d="M31.25,36.27c-2.7.1-5.43.1-8.14,0-.22-.1-.35-.21-.35-.32,0-.45,2-.81,4.42-.81s4.41.36,4.41.81C31.59,36.06,31.47,36.17,31.25,36.27Z" transform="translate(-9.02 -11.23)"/><path class="cls-2" d="M25.23,33.09a9.65,9.65,0,0,1,4.11,0c.16,0,.16,0,.22-.15s0-.26.09-.38a10.74,10.74,0,0,0-4.72,0c.05.12,0,.28.09.39S25.07,33.12,25.23,33.09Z" transform="translate(-9.02 -11.23)"/><g class="cls-8"><path class="cls-9" d="M25,32.87a22.24,22.24,0,0,1,2.23-.3,20.49,20.49,0,0,1,2.31.28c.18,0,.16-.05.23-.17s.05-.28.1-.41a13.14,13.14,0,0,0-5.19,0c.05.13,0,.3.09.41S24.84,32.9,25,32.87Z" transform="translate(-9.02 -11.23)"/></g></g><path class="cls-1" d="M21.7,25.18h0a.19.19,0,0,1,0-.28,2.65,2.65,0,0,1,3.15-.06.19.19,0,0,1,0,.28h0a.19.19,0,0,1-.26,0,2.25,2.25,0,0,0-1.3-.41,2.22,2.22,0,0,0-1.38.47A.19.19,0,0,1,21.7,25.18Z" transform="translate(-9.02 -11.23)"/><path class="cls-10" d="M162.26,12.45l4,8.09a2.17,2.17,0,0,0,1.64,1.2L176.83,23A2.19,2.19,0,0,1,178,26.76l-6.46,6.3A2.2,2.2,0,0,0,171,35l1.53,8.9a2.19,2.19,0,0,1-3.17,2.3l-8-4.2a2.2,2.2,0,0,0-2,0l-8,4.2a2.18,2.18,0,0,1-3.17-2.3l1.52-8.9a2.2,2.2,0,0,0-.62-1.93l-6.47-6.3A2.19,2.19,0,0,1,143.77,23l8.93-1.29a2.19,2.19,0,0,0,1.65-1.2l4-8.09A2.18,2.18,0,0,1,162.26,12.45Z" transform="translate(-9.02 -11.23)"/><circle class="cls-1" cx="155.38" cy="15.89" r="1.49"/><circle class="cls-1" cx="147.2" cy="15.89" r="1.49"/><path class="cls-1" d="M162.79,25.18h0a.2.2,0,0,1,0-.28,2.63,2.63,0,0,1,3.14-.06.19.19,0,0,1,0,.28h0a.2.2,0,0,1-.27,0,2.25,2.25,0,0,0-2.67.06A.2.2,0,0,1,162.79,25.18Z" transform="translate(-9.02 -11.23)"/><path class="cls-1" d="M160.18,35.54a6.88,6.88,0,0,0,4.19-1.42.65.65,0,0,0,.08-1h0a.64.64,0,0,0-.87-.07,5.66,5.66,0,0,1-6.81,0,.64.64,0,0,0-.87.07h0a.65.65,0,0,0,.08,1A6.89,6.89,0,0,0,160.18,35.54Z" transform="translate(-9.02 -11.23)"/><path class="cls-1" d="M154.58,25.18h0a.19.19,0,0,1,0-.28,2.65,2.65,0,0,1,3.15-.06.19.19,0,0,1,0,.28h0a.2.2,0,0,1-.27,0,2.23,2.23,0,0,0-1.3-.41,2.19,2.19,0,0,0-1.37.47A.2.2,0,0,1,154.58,25.18Z" transform="translate(-9.02 -11.23)"/><path class="cls-11" d="M206.56,12.45l4,8.09a2.19,2.19,0,0,0,1.65,1.2L221.13,23a2.19,2.19,0,0,1,1.21,3.73l-6.47,6.3a2.2,2.2,0,0,0-.62,1.93l1.52,8.9a2.18,2.18,0,0,1-3.17,2.3l-8-4.2a2.2,2.2,0,0,0-2,0l-8,4.2a2.19,2.19,0,0,1-3.17-2.3L194,35a2.2,2.2,0,0,0-.63-1.93l-6.46-6.3A2.19,2.19,0,0,1,188.07,23L197,21.74a2.17,2.17,0,0,0,1.64-1.2l4-8.09A2.18,2.18,0,0,1,206.56,12.45Z" transform="translate(-9.02 -11.23)"/><path class="cls-1" d="M204.47,35.54c-2.36,0-4.29-1.33-4.45-3,0-.12.13-.21.29-.2h0a41.31,41.31,0,0,0,8.32,0h0c.16,0,.3.08.29.2C208.76,34.21,206.83,35.54,204.47,35.54Z" transform="translate(-9.02 -11.23)"/><g class="cls-12"><path class="cls-6" d="M201.55,35.44c0,.54,1.31,1,2.92,1s2.92-.44,2.92-1-1.25-1-2.86-1c0,0-.12.14-.14.14s-.17-.14-.2-.14C202.66,34.48,201.55,34.91,201.55,35.44Z" transform="translate(-9.02 -11.23)"/><path class="cls-7" d="M202.13,34.83a6,6,0,0,0,4.67,0c.37.17.59.38.59.61,0,.54-1.31,1-2.92,1s-2.92-.44-2.92-1C201.55,35.21,201.77,35,202.13,34.83Z" transform="translate(-9.02 -11.23)"/><path class="cls-2" d="M201,32.89a29.15,29.15,0,0,0,6.86,0c.23,0,.25-.13.26-.32s-.06-.43-.06-.62a39.13,39.13,0,0,1-7.26,0c0,.19-.07.44-.06.63S200.82,32.87,201,32.89Z" transform="translate(-9.02 -11.23)"/><g class="cls-13"><path class="cls-9" d="M200.78,32.58a32,32,0,0,0,7.38,0c.24,0,.27-.15.28-.34s-.07-.47-.07-.68a41.59,41.59,0,0,1-7.81,0c0,.21-.07.48-.06.68S200.54,32.55,200.78,32.58Z" transform="translate(-9.02 -11.23)"/></g></g><circle class="cls-1" cx="199.67" cy="15.89" r="1.49"/><circle class="cls-1" cx="191.49" cy="15.89" r="1.49"/><path class="cls-1" d="M207.09,25.18h0a.19.19,0,0,1,0-.28,2.65,2.65,0,0,1,3.15-.06.19.19,0,0,1,0,.28h0a.19.19,0,0,1-.26,0,2.26,2.26,0,0,0-2.68.06A.19.19,0,0,1,207.09,25.18Z" transform="translate(-9.02 -11.23)"/><path class="cls-1" d="M198.88,25.18h0a.19.19,0,0,1,0-.28,2.65,2.65,0,0,1,3.15-.06.19.19,0,0,1,0,.28h0a.19.19,0,0,1-.26,0,2.25,2.25,0,0,0-1.3-.41,2.22,2.22,0,0,0-1.38.47A.19.19,0,0,1,198.88,25.18Z" transform="translate(-9.02 -11.23)"/><path class="cls-14" d="M118,12.45l4,8.09a2.19,2.19,0,0,0,1.65,1.2L132.54,23a2.19,2.19,0,0,1,1.21,3.73l-6.47,6.3a2.2,2.2,0,0,0-.62,1.93l1.52,8.9a2.18,2.18,0,0,1-3.17,2.3L117,42a2.2,2.2,0,0,0-2,0l-8,4.2a2.19,2.19,0,0,1-3.17-2.3l1.53-8.9a2.17,2.17,0,0,0-.63-1.93l-6.46-6.3A2.19,2.19,0,0,1,99.48,23l8.93-1.29a2.17,2.17,0,0,0,1.64-1.2l4-8.09A2.18,2.18,0,0,1,118,12.45Z" transform="translate(-9.02 -11.23)"/><circle class="cls-1" cx="111.08" cy="15.89" r="1.49"/><circle class="cls-1" cx="102.9" cy="15.89" r="1.49"/><path class="cls-1" d="M118.5,25.18h0a.19.19,0,0,1,0-.28,2.65,2.65,0,0,1,3.15-.06.19.19,0,0,1,0,.28h0a.19.19,0,0,1-.26,0,2.26,2.26,0,0,0-2.68.06A.19.19,0,0,1,118.5,25.18Z" transform="translate(-9.02 -11.23)"/><path class="cls-1" d="M112.11,34.62h7.54a.67.67,0,0,0,.68-.68h0a.67.67,0,0,0-.68-.68h-7.54a.68.68,0,0,0-.68.68h0A.68.68,0,0,0,112.11,34.62Z" transform="translate(-9.02 -11.23)"/><path class="cls-1" d="M110.29,25.18h0a.19.19,0,0,1,0-.28,2.65,2.65,0,0,1,3.15-.06.19.19,0,0,1,0,.28h0a.19.19,0,0,1-.26,0,2.25,2.25,0,0,0-1.3-.41,2.22,2.22,0,0,0-1.38.47A.19.19,0,0,1,110.29,25.18Z" transform="translate(-9.02 -11.23)"/></svg>